<svg xmlns="http://www.w3.org/2000/svg" width="12.58" height="12.575" viewBox="0 0 12.58 12.575">
  <path id="telephone" d="M17.972,15.328a.609.609,0,0,0-.32-.438l-2.576-1.518-.021-.012a.765.765,0,0,0-.348-.081.8.8,0,0,0-.565.225l-.76.761a.444.444,0,0,1-.171.077c-.009,0-.885-.064-2.5-1.676s-1.678-2.488-1.678-2.488a.405.405,0,0,1,.076-.183l.648-.648a.826.826,0,0,0,.161-.9L8.488,5.75A.591.591,0,0,0,7.958,5.4a.61.61,0,0,0-.431.185L5.759,7.353a1.357,1.357,0,0,0-.347.7c-.015.113-.329,2.82,3.382,6.532,3.151,3.15,5.607,3.394,6.286,3.394a1.923,1.923,0,0,0,.247-.013,1.354,1.354,0,0,0,.7-.346l1.766-1.766a.608.608,0,0,0,.18-.527Z" transform="translate(-5.399 -5.404)" fill="#9f9f9f"/>
</svg>
