<svg xmlns="http://www.w3.org/2000/svg" width="34.728" height="28.94" viewBox="0 0 34.728 28.94">
  <path id="twitter" d="M34.728,6.386a9.333,9.333,0,0,1-1.3,1.858,9.572,9.572,0,0,1-2.342,1.975q.039.31.058.581a21.072,21.072,0,0,1-1.49,8.072A21.256,21.256,0,0,1,21.2,29.383,22.242,22.242,0,0,1,7.957,31.8,15.2,15.2,0,0,1,0,28.725a14.826,14.826,0,0,0,10.608-3.059c-3.255.082-5.62-2.272-6.736-4.994a4.53,4.53,0,0,0,1.51.077,14.046,14.046,0,0,0,1.7-.232,7.986,7.986,0,0,1-4.84-3.755A8.1,8.1,0,0,1,1.433,13.2a6.8,6.8,0,0,0,3.213.968A8.3,8.3,0,0,1,1.49,9.037,9.5,9.5,0,0,1,2.362,4.41,24.332,24.332,0,0,0,10.628,10.6a17.123,17.123,0,0,0,6.484,1.355,8.666,8.666,0,0,1,.871-5.5A7.49,7.49,0,0,1,22.455,3.21a6.6,6.6,0,0,1,6.62,2.052,11.784,11.784,0,0,0,4.607-1.7,6.99,6.99,0,0,1-3.175,4.1,20.131,20.131,0,0,0,4.219-1.277Z" transform="translate(0 -2.999)" fill="#9f9f9f"/>
</svg>
