<svg xmlns="http://www.w3.org/2000/svg" width="28.451" height="28.5" viewBox="0 0 28.451 28.5">
  <g id="bxl-instagram-alt" transform="translate(-4.495 -4.47)">
    <path id="Trazado_38" data-name="Trazado 38" d="M32.856,12.883a10.317,10.317,0,0,0-.661-3.5,7.284,7.284,0,0,0-4.161-4.161,10.437,10.437,0,0,0-3.454-.664c-1.52-.068-2-.087-5.861-.087s-4.353,0-5.862.087a10.437,10.437,0,0,0-3.452.664A7.28,7.28,0,0,0,5.245,9.382a10.355,10.355,0,0,0-.661,3.452c-.068,1.521-.088,2-.088,5.862s0,4.351.088,5.862a10.415,10.415,0,0,0,.661,3.455A7.284,7.284,0,0,0,9.407,32.17a10.4,10.4,0,0,0,3.452.711c1.521.068,2,.088,5.862.088s4.353,0,5.862-.088a10.412,10.412,0,0,0,3.454-.661A7.292,7.292,0,0,0,32.2,28.059a10.378,10.378,0,0,0,.661-3.455c.068-1.52.088-2,.088-5.862s0-4.348-.092-5.861ZM18.711,25.993a7.3,7.3,0,1,1,7.3-7.3,7.3,7.3,0,0,1-7.3,7.3Zm7.6-13.176a1.7,1.7,0,1,1,1.7-1.7A1.7,1.7,0,0,1,26.306,12.817Z" fill="#9f9f9f"/>
    <path id="Trazado_39" data-name="Trazado 39" d="M22.975,18.208a4.745,4.745,0,1,1-4.745-4.745,4.745,4.745,0,0,1,4.745,4.745Z" transform="translate(0.479 0.48)" fill="#9f9f9f"/>
  </g>
</svg>
