<svg xmlns="http://www.w3.org/2000/svg" xmlns:xlink="http://www.w3.org/1999/xlink" width="86.961" height="62.15" viewBox="0 0 86.961 62.15">
  <defs>
    <clipPath id="clip-path">
      <rect id="Rectángulo_3" data-name="Rectángulo 3" width="86.961" height="62.15"/>
    </clipPath>
  </defs>
  <g id="Grupo_24" data-name="Grupo 24" transform="translate(0 0)">
    <g id="Grupo_3" data-name="Grupo 3" transform="translate(0 0)" clip-path="url(#clip-path)">
      <path id="Trazado_1" data-name="Trazado 1" d="M46.192,4.678,46.5,0,43.266.02,43.63,4.7A26.455,26.455,0,0,0,18.683,29.96l-4.68-.3.021,3.231,4.676-.365A26.455,26.455,0,0,0,43.964,57.471l-.3,4.679,3.231-.021-.364-4.675A26.456,26.456,0,0,0,71.475,32.189l4.679.3-.021-3.231-4.676.364A26.456,26.456,0,0,0,46.192,4.678M69.325,29.792l-3.813.3A20.485,20.485,0,0,0,45.806,10.63l.248-3.816A24.314,24.314,0,0,1,69.325,29.792m-5.938,1.871A18.343,18.343,0,0,1,45.9,49.376l-.767-9.852-.642,9.861a18.343,18.343,0,0,1-17.712-17.49l9.851-.766-9.86-.641A18.344,18.344,0,0,1,44.258,12.773l.766,9.852.643-9.861a18.344,18.344,0,0,1,17.712,17.49l-9.851.766ZM43.8,6.828l.3,3.813A20.485,20.485,0,0,0,24.634,30.348L20.818,30.1A24.313,24.313,0,0,1,43.8,6.828M20.832,32.357l3.813-.3A20.484,20.484,0,0,0,44.352,51.519L44.1,55.335A24.314,24.314,0,0,1,20.832,32.357M46.361,55.321l-.3-3.813A20.485,20.485,0,0,0,65.523,31.8l3.816.248A24.313,24.313,0,0,1,46.361,55.321" transform="translate(-1.523 0)" fill="#fff"/>
      <path id="Trazado_2" data-name="Trazado 2" d="M89.147,21.165,84.462,33.347,89.147,45.53h-55V21.165Z" transform="translate(-3.714 -2.301)" fill="red"/>
      <path id="Trazado_3" data-name="Trazado 3" d="M1.884,21.165,6.569,33.347,1.884,45.53h55V21.165Z" transform="translate(-0.205 -2.301)" fill="red"/>
      <path id="Trazado_4" data-name="Trazado 4" d="M92.75,31.16l-1.367,3.325,1.369,3.329a22.2,22.2,0,0,0,.224-2.247l3.923.28V33.138l-3.923.28a22.152,22.152,0,0,0-.225-2.258" transform="translate(-9.937 -3.388)" fill="#fff"/>
      <path id="Trazado_5" data-name="Trazado 5" d="M4.149,37.814l1.366-3.325L4.146,31.16a22.2,22.2,0,0,0-.224,2.247L0,33.127v2.709l3.923-.28a21.9,21.9,0,0,0,.226,2.258" transform="translate(0 -3.388)" fill="#fff"/>
      <path id="Trazado_6" data-name="Trazado 6" d="M58.541,30.744l-.006,0h0l.013-.012-.011.007" transform="translate(-6.365 -3.342)" fill="#445341"/>
      <path id="Trazado_7" data-name="Trazado 7" d="M11.855,29.676v3.9h.909v1H9.426v-1h.889v-3.9H9.426v-1h3.338v1Z" transform="translate(-1.025 -3.118)" fill="#fff"/>
      <path id="Trazado_8" data-name="Trazado 8" d="M17.747,29.676h-.76v-1h2.636v1H18.8v4.939H17.492l-2.553-4.379v3.337h.741v1H13.094v-1h.8v-3.9h-.8v-1h2.479l2.174,3.691Z" transform="translate(-1.424 -3.118)" fill="#fff"/>
      <path id="Trazado_9" data-name="Trazado 9" d="M22.342,29.676l.995,2.95.995-2.95h-.744v-1h2.605v1h-.713l-1.7,4.931H22.561L20.8,29.676h-.7v-1h3.008v1Z" transform="translate(-2.186 -3.118)" fill="#fff"/>
      <path id="Trazado_10" data-name="Trazado 10" d="M30.866,30.542v-.866H29.037v1.356h1.476v.994H29.037v1.547h1.829V32.7H32v1.876h-5.2v-1h.712v-3.9h-.712v-1H32v1.869Z" transform="translate(-2.914 -3.118)" fill="#fff"/>
      <path id="Trazado_11" data-name="Trazado 11" d="M38.206,30.285a1.573,1.573,0,0,1-.252.908,1.785,1.785,0,0,1-.766.6l.952,1.783H38.9v1h-1.8L35.774,32H35.1v1.578h.74v1H32.75v-1h.811v-3.9H32.75v-1h3.368a2.519,2.519,0,0,1,1.534.414,1.4,1.4,0,0,1,.554,1.2M36.6,30.35a.6.6,0,0,0-.216-.5.93.93,0,0,0-.587-.169h-.7v1.372h.564q.936,0,.936-.7" transform="translate(-3.561 -3.118)" fill="#fff"/>
      <path id="Trazado_12" data-name="Trazado 12" d="M43.543,31.048V29.676h-.916v3.9h.881v1H40.2v-1h.9v-3.9h-.9v1.372h-1V28.674h5.342v2.374Z" transform="translate(-4.262 -3.118)" fill="#fff"/>
      <path id="Trazado_13" data-name="Trazado 13" d="M50.722,30.285a1.573,1.573,0,0,1-.252.908,1.785,1.785,0,0,1-.766.6l.952,1.783h.764v1h-1.8L48.29,32h-.674v1.578h.74v1h-3.09v-1h.811v-3.9h-.811v-1h3.368a2.519,2.519,0,0,1,1.534.414,1.4,1.4,0,0,1,.554,1.2m-1.606.066a.6.6,0,0,0-.216-.5.93.93,0,0,0-.587-.169h-.7v1.372h.564q.936,0,.936-.7" transform="translate(-4.922 -3.118)" fill="#fff"/>
      <path id="Trazado_14" data-name="Trazado 14" d="M55.573,29.467l1.233,3.9h.7v1h-2.9v-1h.756l-.282-1H53.552l-.313,1h.787v1H51.417v-1h.729l1.147-3.9h-.787v-1h3.862v1Zm-1.23.24-.529,1.782H54.84ZM54.1,28.1l.65-1.351H56.34L54.793,28.1Z" transform="translate(-5.591 -2.909)" fill="#fff"/>
      <path id="Trazado_15" data-name="Trazado 15" d="M63.625,28.674h3.016v1h-.764v3.9h.764v1H63.664v-1h.713v-3.9H64.24l-1.829,4.9H61.78l-1.852-4.9h-.137v3.9h.759v1H58.056v-1h.772v-3.9h-.772v-1h2.969l1.292,3.455Z" transform="translate(-6.313 -3.118)" fill="#fff"/>
      <path id="Trazado_16" data-name="Trazado 16" d="M70.071,29.676v3.9h.909v1H67.643v-1h.889v-3.9h-.889v-1H70.98v1Z" transform="translate(-7.356 -3.118)" fill="#fff"/>
      <path id="Trazado_17" data-name="Trazado 17" d="M75.706,31.048V29.676H74.79v3.9h.881v1H72.362v-1h.9v-3.9h-.9v1.372h-1V28.674H76.7v2.374Z" transform="translate(-7.76 -3.118)" fill="#fff"/>
      <path id="Trazado_18" data-name="Trazado 18" d="M81.6,30.542v-.866H79.776v1.356h1.476v.994H79.776v1.547H81.6V32.7h1.132v1.876h-5.2v-1h.712v-3.9h-.712v-1h5.2v1.869Z" transform="translate(-8.431 -3.118)" fill="#fff"/>
      <path id="Trazado_19" data-name="Trazado 19" d="M86.305,29.156v-.49h1v1.786h-1a1.115,1.115,0,0,0-.28-.647.758.758,0,0,0-.562-.218.646.646,0,0,0-.415.138.421.421,0,0,0-.172.344.484.484,0,0,0,.11.317.955.955,0,0,0,.282.225c.115.061.288.143.518.244l.239.1a3.246,3.246,0,0,1,1.176.791,1.665,1.665,0,0,1,.4,1.136,1.745,1.745,0,0,1-.466,1.283,1.68,1.68,0,0,1-1.253.471,1.4,1.4,0,0,1-1.194-.575v.5h-1V32.563h1a1.3,1.3,0,0,0,.267.793.807.807,0,0,0,.641.273.623.623,0,0,0,.456-.184A.6.6,0,0,0,86.235,33a.692.692,0,0,0-.213-.488,2.355,2.355,0,0,0-.727-.445,3.656,3.656,0,0,1-1.267-.826,1.489,1.489,0,0,1-.393-1.019,1.664,1.664,0,0,1,.208-.823,1.522,1.522,0,0,1,.574-.586,1.558,1.558,0,0,1,.8-.213,1.386,1.386,0,0,1,.627.141,1.211,1.211,0,0,1,.466.415" transform="translate(-9.095 -3.11)" fill="#fff"/>
      <path id="Trazado_20" data-name="Trazado 20" d="M28.858,37.229h-.591v-.78h2.05v.78h-.64V41.07H28.66l-1.987-3.406v2.6h.576v.78H25.238v-.78h.619v-3.03h-.619v-.78h1.929l1.691,2.869Z" transform="translate(-2.745 -3.964)" fill="#fff"/>
      <path id="Trazado_21" data-name="Trazado 21" d="M33.631,37.229l.96,3.03h.548v.78H32.881v-.78h.588l-.219-.78H32.059l-.244.78h.612v.78H30.4v-.78h.567l.892-3.03h-.612v-.78h3v.78Zm-.956.185L32.264,38.8h.8Z" transform="translate(-3.306 -3.964)" fill="#fff"/>
      <path id="Trazado_22" data-name="Trazado 22" d="M39.231,36.794v-.353h.78v1.613h-.78a1.188,1.188,0,0,0-1.149-.873,1.241,1.241,0,0,0-.708.207,1.383,1.383,0,0,0-.481.565,1.8,1.8,0,0,0-.172.793,1.715,1.715,0,0,0,.162.748,1.373,1.373,0,0,0,.455.543,1.2,1.2,0,0,0,1.488-.122,1.62,1.62,0,0,0,.464-.854l.9.429a2.154,2.154,0,0,1-2.269,1.6,2.85,2.85,0,0,1-1.32-.29,2.051,2.051,0,0,1-.87-.822,2.468,2.468,0,0,1-.3-1.246,2.36,2.36,0,0,1,.314-1.212,2.232,2.232,0,0,1,.866-.846,2.515,2.515,0,0,1,1.239-.306,2.165,2.165,0,0,1,1.38.43" transform="translate(-3.853 -3.954)" fill="#fff"/>
      <path id="Trazado_23" data-name="Trazado 23" d="M42.634,37.229v3.03h.707v.78h-2.6v-.78h.692v-3.03h-.692v-.78h2.6v.78Z" transform="translate(-4.431 -3.964)" fill="#fff"/>
      <path id="Trazado_24" data-name="Trazado 24" d="M43.581,38.721a2.346,2.346,0,0,1,.32-1.231,2.205,2.205,0,0,1,.9-.831,3.147,3.147,0,0,1,2.668,0,2.182,2.182,0,0,1,.9.833,2.54,2.54,0,0,1,0,2.465,2.163,2.163,0,0,1-.9.832,3.116,3.116,0,0,1-2.647,0,2.223,2.223,0,0,1-.911-.832,2.328,2.328,0,0,1-.328-1.237m3.823-.006a1.85,1.85,0,0,0-.152-.76,1.294,1.294,0,0,0-.44-.545,1.228,1.228,0,0,0-1.348,0,1.307,1.307,0,0,0-.44.545,1.837,1.837,0,0,0-.154.76,1.907,1.907,0,0,0,.157.788,1.3,1.3,0,0,0,.444.548,1.127,1.127,0,0,0,.66.2,1.172,1.172,0,0,0,.678-.2,1.259,1.259,0,0,0,.443-.548,1.951,1.951,0,0,0,.152-.788" transform="translate(-4.739 -3.954)" fill="#fff"/>
      <path id="Trazado_25" data-name="Trazado 25" d="M52.971,37.229h-.591v-.78h2.05v.78h-.64V41.07H52.774l-1.987-3.406v2.6h.576v.78H49.352v-.78h.619v-3.03h-.619v-.78h1.929l1.691,2.869Z" transform="translate(-5.367 -3.964)" fill="#fff"/>
      <path id="Trazado_26" data-name="Trazado 26" d="M57.744,37.229l.96,3.03h.548v.78H56.994v-.78h.588l-.219-.78H56.172l-.244.78h.612v.78H54.512v-.78h.567l.892-3.03h-.612v-.78h3v.78Zm-.956.185L56.377,38.8h.8Z" transform="translate(-5.928 -3.964)" fill="#fff"/>
      <path id="Trazado_27" data-name="Trazado 27" d="M61.473,37.229v3.03h1.356V38.843h.9v2.2H59.621v-.78h.655v-3.03h-.655v-.78h2.525v.78Z" transform="translate(-6.483 -3.964)" fill="#fff"/>
      <path id="Trazado_28" data-name="Trazado 28" d="M67.382,37.9v-.673H65.959v1.053h1.148v.774H65.959v1.2h1.422v-.679h.881V41.04H64.213v-.78h.554V37.229h-.554v-.78h4.049V37.9Z" transform="translate(-6.983 -3.964)" fill="#fff"/>
      <path id="Trazado_29" data-name="Trazado 29" d="M71.038,36.823v-.381h.78v1.389h-.78a.88.88,0,0,0-.217-.505.594.594,0,0,0-.438-.168.505.505,0,0,0-.323.106.332.332,0,0,0-.135.268.375.375,0,0,0,.086.247.736.736,0,0,0,.219.176c.089.047.224.111.4.19l.186.079a2.527,2.527,0,0,1,.915.616,1.293,1.293,0,0,1,.309.883,1.356,1.356,0,0,1-.363,1,1.311,1.311,0,0,1-.975.367,1.088,1.088,0,0,1-.929-.448v.394H69v-1.56h.78a1.009,1.009,0,0,0,.209.617.627.627,0,0,0,.5.211.485.485,0,0,0,.355-.143.471.471,0,0,0,.144-.348.535.535,0,0,0-.166-.379,1.772,1.772,0,0,0-.565-.346,2.838,2.838,0,0,1-.985-.643,1.151,1.151,0,0,1-.307-.791,1.29,1.29,0,0,1,.161-.64,1.185,1.185,0,0,1,.447-.455,1.21,1.21,0,0,1,.619-.166,1.074,1.074,0,0,1,.488.11.94.94,0,0,1,.363.323" transform="translate(-7.499 -3.957)" fill="#fff"/>
      <path id="Trazado_30" data-name="Trazado 30" d="M74.414,40.393h-.408v-.582h.408a.283.283,0,0,0,.275.237c.1,0,.146-.039.146-.118a.127.127,0,0,0-.051-.1,1.182,1.182,0,0,0-.231-.122,2.185,2.185,0,0,1-.326-.174.571.571,0,0,1-.168-.184.538.538,0,0,1,.1-.652.587.587,0,0,1,.4-.143.62.62,0,0,1,.4.135v-.111h.412v.517h-.406a.271.271,0,0,0-.264-.214c-.088,0-.133.037-.133.113a.094.094,0,0,0,.037.082,1.971,1.971,0,0,0,.236.127,3.636,3.636,0,0,1,.358.2.46.46,0,0,1,.093.084.627.627,0,0,1,.079.111.554.554,0,0,1,.072.276.506.506,0,0,1-.17.387.594.594,0,0,1-.428.16.714.714,0,0,1-.435-.142Z" transform="translate(-8.046 -4.192)" fill="#fff"/>
      <path id="Trazado_31" data-name="Trazado 31" d="M76.5,40.394H75.78V39.96h.138l.341-.946h-.146v-.435h1.3v.435h-.146l.348.946h.133v.435H76.8V40h.16l-.07-.228H76.43L76.35,40H76.5Zm.171-1.355-.171.5h.325Z" transform="translate(-8.241 -4.195)" fill="#fff"/>
      <path id="Trazado_32" data-name="Trazado 32" d="M78.568,40.393H78.16v-.582h.408a.283.283,0,0,0,.275.237c.1,0,.146-.039.146-.118a.127.127,0,0,0-.051-.1,1.182,1.182,0,0,0-.231-.122,2.184,2.184,0,0,1-.326-.174.571.571,0,0,1-.168-.184.538.538,0,0,1,.1-.652.587.587,0,0,1,.4-.143.62.62,0,0,1,.4.135v-.111h.412v.517h-.406a.271.271,0,0,0-.264-.214c-.088,0-.133.037-.133.113a.094.094,0,0,0,.037.082A1.97,1.97,0,0,0,79,39.2a3.636,3.636,0,0,1,.358.2.46.46,0,0,1,.093.084.627.627,0,0,1,.079.111.554.554,0,0,1,.072.276.506.506,0,0,1-.17.387.594.594,0,0,1-.428.16.714.714,0,0,1-.435-.142Z" transform="translate(-8.498 -4.192)" fill="#fff"/>
      <path id="Trazado_33" data-name="Trazado 33" d="M89.248,27.858V26.125h.892a1.287,1.287,0,0,1,.379.043.4.4,0,0,1,.212.158.488.488,0,0,1-.151.7.629.629,0,0,1-.188.069.535.535,0,0,1,.14.064.552.552,0,0,1,.086.091.67.67,0,0,1,.075.108l.259.5h-.605l-.286-.529a.406.406,0,0,0-.1-.134.223.223,0,0,0-.131-.04h-.047v.7Zm.537-1.03h.225a.777.777,0,0,0,.142-.024.137.137,0,0,0,.087-.054.174.174,0,0,0-.02-.229.327.327,0,0,0-.2-.045h-.235Z" transform="translate(-9.705 -2.841)" fill="#fff"/>
      <circle id="Elipse_1" data-name="Elipse 1" cx="1.507" cy="1.507" r="1.507" transform="translate(78.784 22.643)" fill="none" stroke="#fff" stroke-miterlimit="10" stroke-width="0.25"/>
    </g>
  </g>
</svg>
